<svg width="400" height="200" viewBox="0 0 400 200" fill="none" xmlns="http://www.w3.org/2000/svg">
  <defs>
    <radialGradient id="disc_glow" cx="0" cy="0" r="1" gradientUnits="userSpaceOnUse" gradientTransform="translate(200 100) scale(140 90)">
      <stop stop-color="#38BDF8" stop-opacity="0.25"/>
      <stop offset="1" stop-color="#06131A" stop-opacity="0"/>
    </radialGradient>
    <linearGradient id="disc_laptop" x1="120" y1="40" x2="280" y2="160" gradientUnits="userSpaceOnUse">
      <stop stop-color="#1E293B"/>
      <stop offset="1" stop-color="#0B1924"/>
    </linearGradient>
  </defs>
  <rect width="400" height="200" fill="#09141D"/>
  <rect width="400" height="200" fill="url(#disc_glow)"/>
  <line x1="50" y1="150" x2="350" y2="150" stroke="#1E3A52" stroke-width="1.5" stroke-dasharray="6 6"/>
  <rect x="130" y="45" width="140" height="90" rx="6" fill="url(#disc_laptop)" stroke="#38BDF8" stroke-opacity="0.5" stroke-width="1.5"/>
  <rect x="140" y="55" width="120" height="70" rx="3" fill="#06131A"/>
  <line x1="150" y1="70" x2="200" y2="70" stroke="#38BDF8" stroke-width="3" stroke-linecap="round"/>
  <line x1="150" y1="82" x2="230" y2="82" stroke="#475569" stroke-width="3" stroke-linecap="round"/>
  <line x1="150" y1="94" x2="185" y2="94" stroke="#475569" stroke-width="3" stroke-linecap="round"/>
  <path d="M190 110L205 100L220 106L245 92" stroke="#00E5FF" stroke-width="2" stroke-linecap="round" stroke-linejoin="round"/>
  <path d="M110 138H290L275 148H125L110 138Z" fill="#132330" stroke="#1E3A52" stroke-width="1.2"/>
  <circle cx="260" cy="85" r="26" fill="#132330" fill-opacity="0.8" stroke="#38BDF8" stroke-width="2"/>
  <circle cx="260" cy="85" r="16" stroke="#00E5FF" stroke-width="1.5" stroke-dasharray="3 3"/>
  <line x1="280" y1="105" x2="298" y2="123" stroke="#38BDF8" stroke-width="4" stroke-linecap="round"/>
  <circle cx="260" cy="85" r="5" fill="#F59E0B"/>
</svg>
