<svg width="525" height="459" viewBox="0 0 525 459" fill="none" xmlns="http://www.w3.org/2000/svg">
<path d="M262.5 426.214C371.231 426.214 459.375 338.142 459.375 229.5C459.375 120.858 371.231 32.7857 262.5 32.7857C153.769 32.7857 65.625 120.858 65.625 229.5C65.625 338.142 153.769 426.214 262.5 426.214Z" fill="url(#paint0_radial_8_56)"/>
<path d="M262.5 327.857C359.15 327.857 437.5 293.607 437.5 251.357C437.5 209.107 359.15 174.857 262.5 174.857C165.85 174.857 87.5 209.107 87.5 251.357C87.5 293.607 165.85 327.857 262.5 327.857Z" stroke="#38BDF8" stroke-opacity="0.2" stroke-width="1.5" stroke-dasharray="6 6"/>
<path d="M262.5 349.714C383.312 349.714 481.25 305.678 481.25 251.357C481.25 197.036 383.312 153 262.5 153C141.688 153 43.75 197.036 43.75 251.357C43.75 305.678 141.688 349.714 262.5 349.714Z" stroke="#6366F1" stroke-opacity="0.15"/>
<path d="M334.461 134.507L227.496 111.8C215.681 109.292 204.065 116.832 201.552 128.64L160.597 321.073C158.083 332.882 165.624 344.488 177.439 346.996L284.404 369.703C296.219 372.211 307.834 364.671 310.347 352.863L351.303 160.43C353.816 148.621 346.276 137.015 334.461 134.507Z" fill="black" fill-opacity="0.4"/>
<path d="M325.261 114.677L218.296 91.97C206.481 89.4618 194.866 97.0014 192.352 108.81L151.397 301.243C148.884 313.051 156.424 324.657 168.239 327.166L275.204 349.872C287.019 352.38 298.635 344.841 301.148 333.032L342.103 140.6C344.617 128.791 337.076 117.185 325.261 114.677Z" fill="url(#paint1_linear_8_56)" stroke="#38BDF8" stroke-opacity="0.4" stroke-width="1.5"/>
<path d="M322.826 120.864L218.001 98.6117C209.139 96.7306 200.428 102.385 198.543 111.242L158.043 301.536C156.158 310.392 161.813 319.097 170.674 320.978L275.5 343.23C284.361 345.112 293.072 339.457 294.957 330.6L335.457 140.306C337.342 131.45 331.687 122.745 322.826 120.864Z" fill="#09141D"/>
<path d="M286.153 119.795L251.919 112.526C250.737 112.275 249.575 113.029 249.324 114.211C249.072 115.392 249.827 116.553 251.008 116.804L285.243 124.073C286.425 124.324 287.586 123.57 287.838 122.388C288.089 121.207 287.335 120.046 286.153 119.795Z" fill="#334155"/>
<path d="M277.326 140.264L210.996 126.18C208.633 125.678 206.309 127.187 205.807 129.549C205.304 131.912 206.812 134.234 209.176 134.736L275.505 148.82C277.869 149.322 280.192 147.813 280.695 145.45C281.198 143.088 279.689 140.766 277.326 140.264Z" fill="url(#paint2_linear_8_56)"/>
<path d="M249.001 149.891L206.207 140.805C204.73 140.491 203.278 141.434 202.964 142.911C202.65 144.387 203.592 145.839 205.07 146.152L247.863 155.239C249.34 155.552 250.792 154.61 251.106 153.133C251.42 151.656 250.478 150.205 249.001 149.891Z" fill="#475569"/>
<path d="M306.197 183.257L207.779 162.364C203.052 161.361 198.405 164.377 197.4 169.101L187.388 216.146C186.382 220.87 189.399 225.513 194.125 226.516L292.544 247.409C297.27 248.412 301.917 245.396 302.922 240.672L312.935 193.627C313.94 188.903 310.923 184.26 306.197 183.257Z" fill="#132330" stroke="#1E3A52" stroke-width="0.8"/>
<path d="M196.159 203.487C195.501 203.694 195.135 204.396 195.342 205.054C195.549 205.713 196.251 206.078 196.909 205.871L196.534 204.679L196.159 203.487ZM224.098 196.002L224.636 194.873C224.351 194.737 224.025 194.715 223.723 194.809L224.098 196.002ZM249.478 208.096L248.94 209.224C249.288 209.39 249.693 209.386 250.038 209.213L249.478 208.096ZM280.774 192.387L281.408 191.309C281.042 191.095 280.593 191.08 280.214 191.27L280.774 192.387ZM301.014 205.72C301.609 206.069 302.375 205.87 302.725 205.275C303.075 204.679 302.876 203.914 302.28 203.564L301.647 204.642L301.014 205.72ZM196.534 204.679L196.909 205.871L224.473 197.194L224.098 196.002L223.723 194.809L196.159 203.487L196.534 204.679ZM224.098 196.002L223.56 197.13L248.94 209.224L249.478 208.096L250.016 206.967L224.636 194.873L224.098 196.002ZM249.478 208.096L250.038 209.213L281.335 193.504L280.774 192.387L280.214 191.27L248.917 206.979L249.478 208.096ZM280.774 192.387L280.141 193.465L301.014 205.72L301.647 204.642L302.28 203.564L281.408 191.309L280.774 192.387Z" fill="#38BDF8"/>
<path d="M279.977 196.136C282.044 196.575 284.077 195.256 284.517 193.189C284.957 191.123 283.637 189.091 281.57 188.652C279.502 188.214 277.469 189.533 277.029 191.6C276.589 193.666 277.909 195.697 279.977 196.136Z" fill="#00E5FF"/>
<path d="M230.367 245.367L189.718 236.738C186.173 235.986 182.688 238.248 181.934 241.791L174.425 277.072C173.671 280.615 175.934 284.097 179.478 284.849L220.128 293.478C223.672 294.231 227.157 291.969 227.911 288.426L235.42 253.145C236.174 249.602 233.912 246.12 230.367 245.367Z" fill="#132330"/>
<path d="M192.037 257.345C194.991 257.972 197.895 256.087 198.524 253.134C199.152 250.182 197.267 247.281 194.313 246.653C191.359 246.026 188.455 247.911 187.827 250.864C187.198 253.816 189.083 256.718 192.037 257.345Z" fill="#F59E0B"/>
<path d="M221.472 271.414L187.237 264.145C186.056 263.894 184.894 264.648 184.643 265.83C184.391 267.011 185.145 268.172 186.327 268.423L220.562 275.692C221.743 275.943 222.905 275.189 223.156 274.007C223.408 272.826 222.654 271.665 221.472 271.414Z" fill="#475569"/>
<path d="M292.418 258.546L251.769 249.917C248.224 249.164 244.74 251.426 243.985 254.969L236.476 290.25C235.722 293.793 237.985 297.275 241.53 298.028L282.179 306.657C285.724 307.409 289.208 305.147 289.963 301.604L297.472 266.323C298.226 262.78 295.963 259.298 292.418 258.546Z" fill="#132330"/>
<path d="M254.089 270.523C257.043 271.15 259.947 269.265 260.575 266.313C261.203 263.361 259.318 260.459 256.364 259.832C253.41 259.205 250.506 261.09 249.878 264.042C249.249 266.995 251.135 269.896 254.089 270.523Z" fill="#38BDF8"/>
<path d="M283.523 284.593L249.289 277.324C248.107 277.073 246.945 277.827 246.694 279.008C246.442 280.19 247.197 281.351 248.378 281.602L282.613 288.871C283.795 289.122 284.956 288.367 285.208 287.186C285.459 286.005 284.705 284.844 283.523 284.593Z" fill="#475569"/>
<path d="M135.717 159.016L123.044 162.408C118.378 163.657 115.61 168.45 116.861 173.114L146.312 282.903C147.563 287.568 152.36 290.336 157.026 289.087L169.699 285.695C174.365 284.447 177.133 279.653 175.882 274.989L146.432 165.2C145.18 160.536 140.384 157.767 135.717 159.016Z" fill="#1E293B"/>
<path d="M150.963 182.087L121.387 190.002C112.053 192.5 106.515 202.088 109.018 211.417L120.347 253.647C122.85 262.977 132.446 268.514 141.78 266.016L171.356 258.101C180.69 255.603 186.228 246.015 183.725 236.686L172.396 194.456C169.893 185.127 160.297 179.589 150.963 182.087Z" fill="#0F172A" stroke="#475569" stroke-width="1.5"/>
<path d="M151.323 187.648L123.859 194.998C116.859 196.872 112.706 204.063 114.583 211.06L125.346 251.178C127.223 258.175 134.419 262.328 141.42 260.455L168.884 253.105C175.884 251.232 180.037 244.041 178.16 237.044L167.397 196.925C165.52 189.928 158.324 185.775 151.323 187.648Z" fill="#06131A"/>
<path d="M151.47 243.056C161.971 240.245 168.201 229.459 165.385 218.963C162.57 208.468 151.774 202.237 141.273 205.048C130.772 207.858 124.542 218.645 127.358 229.14C130.173 239.636 140.969 245.866 151.47 243.056Z" stroke="#38BDF8" stroke-opacity="0.8" stroke-width="3"/>
<path d="M149.77 236.721C156.771 234.847 160.925 227.656 159.047 220.659C157.17 213.662 149.973 209.509 142.973 211.382C135.972 213.256 131.818 220.447 133.696 227.444C135.573 234.441 142.77 238.595 149.77 236.721Z" stroke="#F59E0B" stroke-width="3" stroke-dasharray="50 20"/>
<path d="M462.656 120.214H363.125C355.876 120.214 350 126.086 350 133.329V155.186C350 162.429 355.876 168.3 363.125 168.3H462.656C469.905 168.3 475.781 162.429 475.781 155.186V133.329C475.781 126.086 469.905 120.214 462.656 120.214Z" fill="url(#paint3_linear_8_56)" stroke="white" stroke-opacity="0.2"/>
<path d="M371.875 151.907C376.103 151.907 379.531 148.482 379.531 144.257C379.531 140.032 376.103 136.607 371.875 136.607C367.647 136.607 364.219 140.032 364.219 144.257C364.219 148.482 367.647 151.907 371.875 151.907Z" fill="url(#paint4_linear_8_56)"/>
<path d="M446.25 137.7H392.656C390.844 137.7 389.375 139.168 389.375 140.979C389.375 142.789 390.844 144.257 392.656 144.257H446.25C448.062 144.257 449.531 142.789 449.531 140.979C449.531 139.168 448.062 137.7 446.25 137.7Z" fill="white" fill-opacity="0.9"/>
<path d="M425.469 148.629H391.562C390.354 148.629 389.375 149.607 389.375 150.814C389.375 152.021 390.354 153 391.562 153H425.469C426.677 153 427.656 152.021 427.656 150.814C427.656 149.607 426.677 148.629 425.469 148.629Z" fill="white" fill-opacity="0.4"/>
<path d="M384.448 270.19L347.625 265.022C336.858 263.511 326.903 271.008 325.389 281.768L323.256 296.921C321.742 307.681 329.242 317.629 340.009 319.14L376.831 324.308C387.598 325.819 397.554 318.321 399.068 307.561L401.201 292.408C402.715 281.648 395.214 271.701 384.448 270.19Z" fill="#1E293B" stroke="#38BDF8" stroke-opacity="0.4" stroke-width="1.2"/>
<path d="M325.081 283.93L324.941 284.92L400.759 295.567L400.898 294.577L401.037 293.587L325.22 282.94L325.081 283.93Z" fill="#0F172A"/>
<path d="M360.477 307.11C361.973 307.32 363.355 306.279 363.566 304.785C363.776 303.29 362.734 301.909 361.239 301.699C359.744 301.489 358.361 302.53 358.151 304.025C357.94 305.519 358.982 306.901 360.477 307.11Z" fill="#00E5FF"/>
<path d="M175 79.7786C176.812 79.7786 178.281 78.3107 178.281 76.5C178.281 74.6893 176.812 73.2214 175 73.2214C173.188 73.2214 171.719 74.6893 171.719 76.5C171.719 78.3107 173.188 79.7786 175 79.7786Z" fill="#00E5FF"/>
<path d="M426.562 220.757C427.771 220.757 428.75 219.779 428.75 218.571C428.75 217.364 427.771 216.386 426.562 216.386C425.354 216.386 424.375 217.364 424.375 218.571C424.375 219.779 425.354 220.757 426.562 220.757Z" fill="#F59E0B"/>
<path d="M120.312 330.589C121.823 330.589 123.047 329.366 123.047 327.857C123.047 326.348 121.823 325.125 120.312 325.125C118.802 325.125 117.578 326.348 117.578 327.857C117.578 329.366 118.802 330.589 120.312 330.589Z" fill="#38BDF8"/>
<path d="M393.75 363.921C395.562 363.921 397.031 362.454 397.031 360.643C397.031 358.832 395.562 357.364 393.75 357.364C391.938 357.364 390.469 358.832 390.469 360.643C390.469 362.454 391.938 363.921 393.75 363.921Z" fill="#6366F1"/>
<defs>
<radialGradient id="paint0_radial_8_56" cx="0" cy="0" r="1" gradientUnits="userSpaceOnUse" gradientTransform="translate(262.5 229.5) scale(196.875 196.714)">
<stop stop-color="#00E5FF" stop-opacity="0.25"/>
<stop offset="0.6" stop-color="#3B82F6" stop-opacity="0.08"/>
<stop offset="1" stop-color="#06131A" stop-opacity="0"/>
</radialGradient>
<linearGradient id="paint1_linear_8_56" x1="196.903" y1="87.4286" x2="381.111" y2="268.378" gradientUnits="userSpaceOnUse">
<stop stop-color="#1E293B"/>
<stop offset="1" stop-color="#0F172A"/>
</linearGradient>
<linearGradient id="paint2_linear_8_56" x1="206.717" y1="125.271" x2="205.06" y2="142.573" gradientUnits="userSpaceOnUse">
<stop stop-color="#38BDF8"/>
<stop offset="1" stop-color="#6366F1"/>
</linearGradient>
<linearGradient id="paint3_linear_8_56" x1="350" y1="120.214" x2="382.078" y2="204.122" gradientUnits="userSpaceOnUse">
<stop stop-color="white" stop-opacity="0.12"/>
<stop offset="1" stop-color="white" stop-opacity="0.03"/>
</linearGradient>
<linearGradient id="paint4_linear_8_56" x1="364.219" y1="136.607" x2="379.531" y2="136.607" gradientUnits="userSpaceOnUse">
<stop stop-color="#F59E0B"/>
<stop offset="1" stop-color="#EF4444"/>
</linearGradient>
</defs>
</svg>
